Frankrijk
Animatie / Fantasy
93 minuten

Geregisseerd door Luc Besson
Met Freddie Highmore, Penny Balfour en Mia Farrow en de stemmen van : Boyan van der Heijden, Kim-Lian van der Meij, Hugo Metsers, Renée Soutendijk, Chris Silos, Dio, Willie Wartaal, Marco Borsato.

Arthur is uitzinnig van vreugde: vandaag is het einde van de tiende Maancyclus en hij zal eindelijk de wereld van de Minimoys kunnen toetreden om Sélénia te vinden. Maar uitgerekend deze dag heeft zijn vader uitgekozen om Arthur eens te laten stoppen met zijn reizen en naar zijn oma te sturen. Op de dag van zijn vertrek naar oma ontvangt Arthur van een spin een SOS-bericht van de Minimoys: Sélénia is in gevaar! Arthur twijfelt niet lang om te hulp te schieten, ook al betekent dat zijn leven riskeren tegen de beruchte Maltazard...
 
http://www.imdb.com/title/tt0940657/
 
http://www.moviemeter.nl/film/47275

Nederlands gesproken.

Cover bijgesloten.

General
Complete name                    : Arthur en de Wraak van Maltazard-DVDRip[Ned]2009 2Lions-Team.avi
Format                           : AVI
Format/Info                      : Audio Video Interleave
File size                        : 1.36 GiB
Duration                         : 1h 29mn
Overall bit rate                 : 2 170 Kbps
Writing application              : VirtualDubMod 1.5.4.1 (build 2178/release)
Writing library                  : VirtualDubMod build 2178/release

Video
ID                               : 0
Format                           : MPEG-4 Visual
Format profile                   : Simple@L3
Format settings, BVOP            : No
Format settings, QPel            : No
Format settings, GMC             : No warppoints
Format settings, Matrix          : Default (H.263)
Codec ID                         : XVID
Codec ID/Hint                    : XviD
Duration                         : 1h 29mn
Bit rate                         : 1 712 Kbps
Width                            : 720 pixels
Height                           : 304 pixels
Display aspect ratio             : 2.35:1
Frame rate                       : 25.000 fps
Resolution                       : 24 bits
Colorimetry                      : 4:2:0
Scan type                        : Progressive
Bits/(Pixel*Frame)               : 0.313
Stream size                      : 1.07 GiB (79%)
Writing library                  : XviD 1.1.2 (UTC 2006-11-01)

Audio
ID                               : 1
Format                           : AC-3
Format/Info                      : Audio Coding 3
Codec ID                         : 2000
Duration                         : 1h 29mn
Bit rate mode                    : Constant
Bit rate                         : 448 Kbps
Channel(s)                       : 6 channels
Channel positions                : Front: L C R, Surround: L R, LFE
Sampling rate                    : 48.0 KHz
Stream size                      : 288 MiB (21%)
Alignment                        : Split accross interleaves
Interleave, duration             : 40 ms (1.00 video frame)
Interleave, preload duration     : 500 ms

Brought to you by 
2Lions Team

meer zien??
Kom dan eens kijken op ons forum 
                    
http://www.2lions.ons-forum.nl

2Lions the site to be for all your Dutch MOVIES and more

******************************************

DON T HIT AND RUN Niet gelijk afhaken als de FILM binnen is blijf seeden. 

Don`t quit after you finished the download, but keep seeding

There are fake torrents from uploaders who use our team name.
Those are not ours, or members from our team.
We 2Lions-Team are not responsible for the fake posts on our name

Wij 2Lions-Team zijn niet verantwoordelijk voor die zieke FAKE posten die op onze naam worden gedaan

Please check our site !!!

to the fakers , get a life !!!

Hier te vinden: